<?xml version="1.0" encoding="utf-8" standalone="no"?>
<!DOCTYPE svg PUBLIC "-//W3C//DTD SVG 1.1//EN"
  "http://www.w3.org/Graphics/SVG/1.1/DTD/svg11.dtd">
<svg xmlns:xlink="http://www.w3.org/1999/xlink" width="576pt" height="432pt" viewBox="0 0 576 432" xmlns="http://www.w3.org/2000/svg" version="1.1">
 <metadata>
  <rdf:RDF xmlns:dc="http://purl.org/dc/elements/1.1/" xmlns:cc="http://creativecommons.org/ns#" xmlns:rdf="http://www.w3.org/1999/02/22-rdf-syntax-ns#">
   <cc:Work>
    <dc:type rdf:resource="http://purl.org/dc/dcmitype/StillImage"/>
    <dc:date>2026-02-19T14:09:58.252365</dc:date>
    <dc:format>image/svg+xml</dc:format>
    <dc:creator>
     <cc:Agent>
      <dc:title>Matplotlib v3.10.8, https://matplotlib.org/</dc:title>
     </cc:Agent>
    </dc:creator>
   </cc:Work>
  </rdf:RDF>
 </metadata>
 <defs>
  <style type="text/css">*{stroke-linejoin: round; stroke-linecap: butt}</style>
 </defs>
 <g id="figure_1">
  <g id="patch_1">
   <path d="M 0 432 
L 576 432 
L 576 0 
L 0 0 
z
" style="fill: #ffffff"/>
  </g>
  <g id="axes_1">
   <g id="patch_2">
    <path d="M 44.57 390.04 
L 558.855 390.04 
L 558.855 26.88 
L 44.57 26.88 
z
" style="fill: #ffffff"/>
   </g>
   <g id="PathCollection_1">
    <defs>
     <path id="m4becac0ec0" d="M 0 3 
C 0.795609 3 1.55874 2.683901 2.12132 2.12132 
C 2.683901 1.55874 3 0.795609 3 0 
C 3 -0.795609 2.683901 -1.55874 2.12132 -2.12132 
C 1.55874 -2.683901 0.795609 -3 0 -3 
C -0.795609 -3 -1.55874 -2.683901 -2.12132 -2.12132 
C -2.683901 -1.55874 -3 -0.795609 -3 0 
C -3 0.795609 -2.683901 1.55874 -2.12132 2.12132 
C -1.55874 2.683901 -0.795609 3 0 3 
z
" style="stroke: #0000ff; stroke-opacity: 0.7"/>
    </defs>
    <g clip-path="url(#pf52cec46b3)">
     <use xlink:href="#m4becac0ec0" x="250.094792" y="221.342407" style="fill: #0000ff; fill-opacity: 0.7; stroke: #0000ff; stroke-opacity: 0.7"/>
     <use xlink:href="#m4becac0ec0" x="487.148986" y="316.567476" style="fill: #0000ff; fill-opacity: 0.7; stroke: #0000ff; stroke-opacity: 0.7"/>
     <use xlink:href="#m4becac0ec0" x="397.161303" y="339.549518" style="fill: #0000ff; fill-opacity: 0.7; stroke: #0000ff; stroke-opacity: 0.7"/>
     <use xlink:href="#m4becac0ec0" x="342.303363" y="146.965637" style="fill: #0000ff; fill-opacity: 0.7; stroke: #0000ff; stroke-opacity: 0.7"/>
     <use xlink:href="#m4becac0ec0" x="160.188937" y="143.316643" style="fill: #0000ff; fill-opacity: 0.7; stroke: #0000ff; stroke-opacity: 0.7"/>
     <use xlink:href="#m4becac0ec0" x="160.179014" y="177.577451" style="fill: #0000ff; fill-opacity: 0.7; stroke: #0000ff; stroke-opacity: 0.7"/>
     <use xlink:href="#m4becac0ec0" x="119.895724" y="287.349878" style="fill: #0000ff; fill-opacity: 0.7; stroke: #0000ff; stroke-opacity: 0.7"/>
     <use xlink:href="#m4becac0ec0" x="452.367619" y="332.441637" style="fill: #0000ff; fill-opacity: 0.7; stroke: #0000ff; stroke-opacity: 0.7"/>
     <use xlink:href="#m4becac0ec0" x="343.314047" y="204.63236" style="fill: #0000ff; fill-opacity: 0.7; stroke: #0000ff; stroke-opacity: 0.7"/>
     <use xlink:href="#m4becac0ec0" x="387.319385" y="257.816532" style="fill: #0000ff; fill-opacity: 0.7; stroke: #0000ff; stroke-opacity: 0.7"/>
     <use xlink:href="#m4becac0ec0" x="104.467537" y="327.132357" style="fill: #0000ff; fill-opacity: 0.7; stroke: #0000ff; stroke-opacity: 0.7"/>
     <use xlink:href="#m4becac0ec0" x="495.046571" y="245.826932" style="fill: #0000ff; fill-opacity: 0.7; stroke: #0000ff; stroke-opacity: 0.7"/>
     <use xlink:href="#m4becac0ec0" x="438.488711" y="346.230879" style="fill: #0000ff; fill-opacity: 0.7; stroke: #0000ff; stroke-opacity: 0.7"/>
     <use xlink:href="#m4becac0ec0" x="183.360756" y="155.586722" style="fill: #0000ff; fill-opacity: 0.7; stroke: #0000ff; stroke-opacity: 0.7"/>
     <use xlink:href="#m4becac0ec0" x="170.806383" y="297.336877" style="fill: #0000ff; fill-opacity: 0.7; stroke: #0000ff; stroke-opacity: 0.7"/>
     <use xlink:href="#m4becac0ec0" x="171.456251" y="209.363044" style="fill: #0000ff; fill-opacity: 0.7; stroke: #0000ff; stroke-opacity: 0.7"/>
     <use xlink:href="#m4becac0ec0" x="221.172278" y="285.803403" style="fill: #0000ff; fill-opacity: 0.7; stroke: #0000ff; stroke-opacity: 0.7"/>
     <use xlink:href="#m4becac0ec0" x="311.897989" y="240.403258" style="fill: #0000ff; fill-opacity: 0.7; stroke: #0000ff; stroke-opacity: 0.7"/>
     <use xlink:href="#m4becac0ec0" x="273.712775" y="234.598017" style="fill: #0000ff; fill-opacity: 0.7; stroke: #0000ff; stroke-opacity: 0.7"/>
     <use xlink:href="#m4becac0ec0" x="215.818323" y="313.444954" style="fill: #0000ff; fill-opacity: 0.7; stroke: #0000ff; stroke-opacity: 0.7"/>
     <use xlink:href="#m4becac0ec0" x="347.731913" y="142.455388" style="fill: #0000ff; fill-opacity: 0.7; stroke: #0000ff; stroke-opacity: 0.7"/>
     <use xlink:href="#m4becac0ec0" x="153.39018" y="184.825658" style="fill: #0000ff; fill-opacity: 0.7; stroke: #0000ff; stroke-opacity: 0.7"/>
     <use xlink:href="#m4becac0ec0" x="216.194988" y="149.010939" style="fill: #0000ff; fill-opacity: 0.7; stroke: #0000ff; stroke-opacity: 0.7"/>
     <use xlink:href="#m4becac0ec0" x="246.73002" y="158.7447" style="fill: #0000ff; fill-opacity: 0.7; stroke: #0000ff; stroke-opacity: 0.7"/>
     <use xlink:href="#m4becac0ec0" x="283.638461" y="223.443986" style="fill: #0000ff; fill-opacity: 0.7; stroke: #0000ff; stroke-opacity: 0.7"/>
     <use xlink:href="#m4becac0ec0" x="419.041875" y="152.851292" style="fill: #0000ff; fill-opacity: 0.7; stroke: #0000ff; stroke-opacity: 0.7"/>
     <use xlink:href="#m4becac0ec0" x="178.149885" y="334.441838" style="fill: #0000ff; fill-opacity: 0.7; stroke: #0000ff; stroke-opacity: 0.7"/>
     <use xlink:href="#m4becac0ec0" x="307.568947" y="311.020118" style="fill: #0000ff; fill-opacity: 0.7; stroke: #0000ff; stroke-opacity: 0.7"/>
     <use xlink:href="#m4becac0ec0" x="339.734441" y="343.869155" style="fill: #0000ff; fill-opacity: 0.7; stroke: #0000ff; stroke-opacity: 0.7"/>
     <use xlink:href="#m4becac0ec0" x="115.1095" y="282.835822" style="fill: #0000ff; fill-opacity: 0.7; stroke: #0000ff; stroke-opacity: 0.7"/>
    </g>
   </g>
   <g id="PathCollection_2">
    <defs>
     <path id="m66f5cf46a2" d="M 0 3 
C 0.795609 3 1.55874 2.683901 2.12132 2.12132 
C 2.683901 1.55874 3 0.795609 3 0 
C 3 -0.795609 2.683901 -1.55874 2.12132 -2.12132 
C 1.55874 -2.683901 0.795609 -3 0 -3 
C -0.795609 -3 -1.55874 -2.683901 -2.12132 -2.12132 
C -2.683901 -1.55874 -3 -0.795609 -3 0 
C -3 0.795609 -2.683901 1.55874 -2.12132 2.12132 
C -1.55874 2.683901 -0.795609 3 0 3 
z
" style="stroke: #000000; stroke-opacity: 0.9"/>
    </defs>
    <g clip-path="url(#pf52cec46b3)">
     <use xlink:href="#m66f5cf46a2" x="147.427" y="276.6661" style="fill: #ffa500; fill-opacity: 0.9; stroke: #000000; stroke-opacity: 0.9"/>
     <use xlink:href="#m66f5cf46a2" x="163.667579" y="242.688872" style="fill: #ffa500; fill-opacity: 0.9; stroke: #000000; stroke-opacity: 0.9"/>
     <use xlink:href="#m66f5cf46a2" x="179.908158" y="210.034272" style="fill: #ffa500; fill-opacity: 0.9; stroke: #000000; stroke-opacity: 0.9"/>
     <use xlink:href="#m66f5cf46a2" x="196.148737" y="167.431314" style="fill: #ffa500; fill-opacity: 0.9; stroke: #000000; stroke-opacity: 0.9"/>
     <use xlink:href="#m66f5cf46a2" x="212.389316" y="145.411494" style="fill: #ffa500; fill-opacity: 0.9; stroke: #000000; stroke-opacity: 0.9"/>
     <use xlink:href="#m66f5cf46a2" x="228.629895" y="142.442853" style="fill: #ffa500; fill-opacity: 0.9; stroke: #000000; stroke-opacity: 0.9"/>
     <use xlink:href="#m66f5cf46a2" x="244.870474" y="118.08121" style="fill: #ffa500; fill-opacity: 0.9; stroke: #000000; stroke-opacity: 0.9"/>
     <use xlink:href="#m66f5cf46a2" x="261.111053" y="118.698924" style="fill: #ffa500; fill-opacity: 0.9; stroke: #000000; stroke-opacity: 0.9"/>
     <use xlink:href="#m66f5cf46a2" x="277.351632" y="115.684773" style="fill: #ffa500; fill-opacity: 0.9; stroke: #000000; stroke-opacity: 0.9"/>
     <use xlink:href="#m66f5cf46a2" x="293.592211" y="98.835204" style="fill: #ffa500; fill-opacity: 0.9; stroke: #000000; stroke-opacity: 0.9"/>
     <use xlink:href="#m66f5cf46a2" x="309.832789" y="89.163098" style="fill: #ffa500; fill-opacity: 0.9; stroke: #000000; stroke-opacity: 0.9"/>
     <use xlink:href="#m66f5cf46a2" x="326.073368" y="89.640239" style="fill: #ffa500; fill-opacity: 0.9; stroke: #000000; stroke-opacity: 0.9"/>
     <use xlink:href="#m66f5cf46a2" x="342.313947" y="111.852036" style="fill: #ffa500; fill-opacity: 0.9; stroke: #000000; stroke-opacity: 0.9"/>
     <use xlink:href="#m66f5cf46a2" x="358.554526" y="125.198642" style="fill: #ffa500; fill-opacity: 0.9; stroke: #000000; stroke-opacity: 0.9"/>
     <use xlink:href="#m66f5cf46a2" x="374.795105" y="140.316616" style="fill: #ffa500; fill-opacity: 0.9; stroke: #000000; stroke-opacity: 0.9"/>
     <use xlink:href="#m66f5cf46a2" x="391.035684" y="153.582748" style="fill: #ffa500; fill-opacity: 0.9; stroke: #000000; stroke-opacity: 0.9"/>
     <use xlink:href="#m66f5cf46a2" x="407.276263" y="180.405006" style="fill: #ffa500; fill-opacity: 0.9; stroke: #000000; stroke-opacity: 0.9"/>
     <use xlink:href="#m66f5cf46a2" x="423.516842" y="197.395553" style="fill: #ffa500; fill-opacity: 0.9; stroke: #000000; stroke-opacity: 0.9"/>
     <use xlink:href="#m66f5cf46a2" x="439.757421" y="231.25531" style="fill: #ffa500; fill-opacity: 0.9; stroke: #000000; stroke-opacity: 0.9"/>
     <use xlink:href="#m66f5cf46a2" x="455.998" y="268.628989" style="fill: #ffa500; fill-opacity: 0.9; stroke: #000000; stroke-opacity: 0.9"/>
    </g>
   </g>
   <g id="patch_3">
    <path d="M 301.7125 139.4596 
C 322.170996 139.4596 341.79432 137.16371 356.260662 133.077574 
C 370.727003 128.991438 378.85525 123.448669 378.85525 117.67 
C 378.85525 111.891331 370.727003 106.348562 356.260662 102.262426 
C 341.79432 98.17629 322.170996 95.8804 301.7125 95.8804 
C 281.254004 95.8804 261.63068 98.17629 247.164338 102.262426 
C 232.697997 106.348562 224.56975 111.891331 224.56975 117.67 
C 224.56975 123.448669 232.697997 128.991438 247.164338 133.077574 
C 261.63068 137.16371 281.254004 139.4596 301.7125 139.4596 
z
" clip-path="url(#pf52cec46b3)" style="fill: #ff0000; opacity: 0.3; stroke: #ff0000; stroke-linejoin: miter"/>
   </g>
   <g id="matplotlib.axis_1">
    <g id="xtick_1">
     <g id="line2d_1">
      <defs>
       <path id="m12d61524d7" d="M 0 0 
L 0 3.5 
" style="stroke: #000000; stroke-width: 0.8"/>
      </defs>
      <g>
       <use xlink:href="#m12d61524d7" x="44.57" y="390.04" style="stroke: #000000; stroke-width: 0.8"/>
      </g>
     </g>
     <g id="text_1">
      <!-- 0 -->
      <g transform="translate(41.38875 404.638438) scale(0.1 -0.1)">
       <defs>
        <path id="DejaVuSans-30" d="M 2034 4250 
Q 1547 4250 1301 3770 
Q 1056 3291 1056 2328 
Q 1056 1369 1301 889 
Q 1547 409 2034 409 
Q 2525 409 2770 889 
Q 3016 1369 3016 2328 
Q 3016 3291 2770 3770 
Q 2525 4250 2034 4250 
z
M 2034 4750 
Q 2819 4750 3233 4129 
Q 3647 3509 3647 2328 
Q 3647 1150 3233 529 
Q 2819 -91 2034 -91 
Q 1250 -91 836 529 
Q 422 1150 422 2328 
Q 422 3509 836 4129 
Q 1250 4750 2034 4750 
z
" transform="scale(0.015625)"/>
       </defs>
       <use xlink:href="#DejaVuSans-30"/>
      </g>
     </g>
    </g>
    <g id="xtick_2">
     <g id="line2d_2">
      <g>
       <use xlink:href="#m12d61524d7" x="147.427" y="390.04" style="stroke: #000000; stroke-width: 0.8"/>
      </g>
     </g>
     <g id="text_2">
      <!-- 2 -->
      <g transform="translate(144.24575 404.638438) scale(0.1 -0.1)">
       <defs>
        <path id="DejaVuSans-32" d="M 1228 531 
L 3431 531 
L 3431 0 
L 469 0 
L 469 531 
Q 828 903 1448 1529 
Q 2069 2156 2228 2338 
Q 2531 2678 2651 2914 
Q 2772 3150 2772 3378 
Q 2772 3750 2511 3984 
Q 2250 4219 1831 4219 
Q 1534 4219 1204 4116 
Q 875 4013 500 3803 
L 500 4441 
Q 881 4594 1212 4672 
Q 1544 4750 1819 4750 
Q 2544 4750 2975 4387 
Q 3406 4025 3406 3419 
Q 3406 3131 3298 2873 
Q 3191 2616 2906 2266 
Q 2828 2175 2409 1742 
Q 1991 1309 1228 531 
z
" transform="scale(0.015625)"/>
       </defs>
       <use xlink:href="#DejaVuSans-32"/>
      </g>
     </g>
    </g>
    <g id="xtick_3">
     <g id="line2d_3">
      <g>
       <use xlink:href="#m12d61524d7" x="250.284" y="390.04" style="stroke: #000000; stroke-width: 0.8"/>
      </g>
     </g>
     <g id="text_3">
      <!-- 4 -->
      <g transform="translate(247.10275 404.638438) scale(0.1 -0.1)">
       <defs>
        <path id="DejaVuSans-34" d="M 2419 4116 
L 825 1625 
L 2419 1625 
L 2419 4116 
z
M 2253 4666 
L 3047 4666 
L 3047 1625 
L 3713 1625 
L 3713 1100 
L 3047 1100 
L 3047 0 
L 2419 0 
L 2419 1100 
L 313 1100 
L 313 1709 
L 2253 4666 
z
" transform="scale(0.015625)"/>
       </defs>
       <use xlink:href="#DejaVuSans-34"/>
      </g>
     </g>
    </g>
    <g id="xtick_4">
     <g id="line2d_4">
      <g>
       <use xlink:href="#m12d61524d7" x="353.141" y="390.04" style="stroke: #000000; stroke-width: 0.8"/>
      </g>
     </g>
     <g id="text_4">
      <!-- 6 -->
      <g transform="translate(349.95975 404.638438) scale(0.1 -0.1)">
       <defs>
        <path id="DejaVuSans-36" d="M 2113 2584 
Q 1688 2584 1439 2293 
Q 1191 2003 1191 1497 
Q 1191 994 1439 701 
Q 1688 409 2113 409 
Q 2538 409 2786 701 
Q 3034 994 3034 1497 
Q 3034 2003 2786 2293 
Q 2538 2584 2113 2584 
z
M 3366 4563 
L 3366 3988 
Q 3128 4100 2886 4159 
Q 2644 4219 2406 4219 
Q 1781 4219 1451 3797 
Q 1122 3375 1075 2522 
Q 1259 2794 1537 2939 
Q 1816 3084 2150 3084 
Q 2853 3084 3261 2657 
Q 3669 2231 3669 1497 
Q 3669 778 3244 343 
Q 2819 -91 2113 -91 
Q 1303 -91 875 529 
Q 447 1150 447 2328 
Q 447 3434 972 4092 
Q 1497 4750 2381 4750 
Q 2619 4750 2861 4703 
Q 3103 4656 3366 4563 
z
" transform="scale(0.015625)"/>
       </defs>
       <use xlink:href="#DejaVuSans-36"/>
      </g>
     </g>
    </g>
    <g id="xtick_5">
     <g id="line2d_5">
      <g>
       <use xlink:href="#m12d61524d7" x="455.998" y="390.04" style="stroke: #000000; stroke-width: 0.8"/>
      </g>
     </g>
     <g id="text_5">
      <!-- 8 -->
      <g transform="translate(452.81675 404.638438) scale(0.1 -0.1)">
       <defs>
        <path id="DejaVuSans-38" d="M 2034 2216 
Q 1584 2216 1326 1975 
Q 1069 1734 1069 1313 
Q 1069 891 1326 650 
Q 1584 409 2034 409 
Q 2484 409 2743 651 
Q 3003 894 3003 1313 
Q 3003 1734 2745 1975 
Q 2488 2216 2034 2216 
z
M 1403 2484 
Q 997 2584 770 2862 
Q 544 3141 544 3541 
Q 544 4100 942 4425 
Q 1341 4750 2034 4750 
Q 2731 4750 3128 4425 
Q 3525 4100 3525 3541 
Q 3525 3141 3298 2862 
Q 3072 2584 2669 2484 
Q 3125 2378 3379 2068 
Q 3634 1759 3634 1313 
Q 3634 634 3220 271 
Q 2806 -91 2034 -91 
Q 1263 -91 848 271 
Q 434 634 434 1313 
Q 434 1759 690 2068 
Q 947 2378 1403 2484 
z
M 1172 3481 
Q 1172 3119 1398 2916 
Q 1625 2713 2034 2713 
Q 2441 2713 2670 2916 
Q 2900 3119 2900 3481 
Q 2900 3844 2670 4047 
Q 2441 4250 2034 4250 
Q 1625 4250 1398 4047 
Q 1172 3844 1172 3481 
z
" transform="scale(0.015625)"/>
       </defs>
       <use xlink:href="#DejaVuSans-38"/>
      </g>
     </g>
    </g>
    <g id="xtick_6">
     <g id="line2d_6">
      <g>
       <use xlink:href="#m12d61524d7" x="558.855" y="390.04" style="stroke: #000000; stroke-width: 0.8"/>
      </g>
     </g>
     <g id="text_6">
      <!-- 10 -->
      <g transform="translate(552.4925 404.638438) scale(0.1 -0.1)">
       <defs>
        <path id="DejaVuSans-31" d="M 794 531 
L 1825 531 
L 1825 4091 
L 703 3866 
L 703 4441 
L 1819 4666 
L 2450 4666 
L 2450 531 
L 3481 531 
L 3481 0 
L 794 0 
L 794 531 
z
" transform="scale(0.015625)"/>
       </defs>
       <use xlink:href="#DejaVuSans-31"/>
       <use xlink:href="#DejaVuSans-30" transform="translate(63.623047 0)"/>
      </g>
     </g>
    </g>
    <g id="text_7">
     <!-- Ego-NPC Interaction Intensity -->
     <g transform="translate(228.107812 418.316562) scale(0.1 -0.1)">
      <defs>
       <path id="DejaVuSans-45" d="M 628 4666 
L 3578 4666 
L 3578 4134 
L 1259 4134 
L 1259 2753 
L 3481 2753 
L 3481 2222 
L 1259 2222 
L 1259 531 
L 3634 531 
L 3634 0 
L 628 0 
L 628 4666 
z
" transform="scale(0.015625)"/>
       <path id="DejaVuSans-67" d="M 2906 1791 
Q 2906 2416 2648 2759 
Q 2391 3103 1925 3103 
Q 1463 3103 1205 2759 
Q 947 2416 947 1791 
Q 947 1169 1205 825 
Q 1463 481 1925 481 
Q 2391 481 2648 825 
Q 2906 1169 2906 1791 
z
M 3481 434 
Q 3481 -459 3084 -895 
Q 2688 -1331 1869 -1331 
Q 1566 -1331 1297 -1286 
Q 1028 -1241 775 -1147 
L 775 -588 
Q 1028 -725 1275 -790 
Q 1522 -856 1778 -856 
Q 2344 -856 2625 -561 
Q 2906 -266 2906 331 
L 2906 616 
Q 2728 306 2450 153 
Q 2172 0 1784 0 
Q 1141 0 747 490 
Q 353 981 353 1791 
Q 353 2603 747 3093 
Q 1141 3584 1784 3584 
Q 2172 3584 2450 3431 
Q 2728 3278 2906 2969 
L 2906 3500 
L 3481 3500 
L 3481 434 
z
" transform="scale(0.015625)"/>
       <path id="DejaVuSans-6f" d="M 1959 3097 
Q 1497 3097 1228 2736 
Q 959 2375 959 1747 
Q 959 1119 1226 758 
Q 1494 397 1959 397 
Q 2419 397 2687 759 
Q 2956 1122 2956 1747 
Q 2956 2369 2687 2733 
Q 2419 3097 1959 3097 
z
M 1959 3584 
Q 2709 3584 3137 3096 
Q 3566 2609 3566 1747 
Q 3566 888 3137 398 
Q 2709 -91 1959 -91 
Q 1206 -91 779 398 
Q 353 888 353 1747 
Q 353 2609 779 3096 
Q 1206 3584 1959 3584 
z
" transform="scale(0.015625)"/>
       <path id="DejaVuSans-2d" d="M 313 2009 
L 1997 2009 
L 1997 1497 
L 313 1497 
L 313 2009 
z
" transform="scale(0.015625)"/>
       <path id="DejaVuSans-4e" d="M 628 4666 
L 1478 4666 
L 3547 763 
L 3547 4666 
L 4159 4666 
L 4159 0 
L 3309 0 
L 1241 3903 
L 1241 0 
L 628 0 
L 628 4666 
z
" transform="scale(0.015625)"/>
       <path id="DejaVuSans-50" d="M 1259 4147 
L 1259 2394 
L 2053 2394 
Q 2494 2394 2734 2622 
Q 2975 2850 2975 3272 
Q 2975 3691 2734 3919 
Q 2494 4147 2053 4147 
L 1259 4147 
z
M 628 4666 
L 2053 4666 
Q 2838 4666 3239 4311 
Q 3641 3956 3641 3272 
Q 3641 2581 3239 2228 
Q 2838 1875 2053 1875 
L 1259 1875 
L 1259 0 
L 628 0 
L 628 4666 
z
" transform="scale(0.015625)"/>
       <path id="DejaVuSans-43" d="M 4122 4306 
L 4122 3641 
Q 3803 3938 3442 4084 
Q 3081 4231 2675 4231 
Q 1875 4231 1450 3742 
Q 1025 3253 1025 2328 
Q 1025 1406 1450 917 
Q 1875 428 2675 428 
Q 3081 428 3442 575 
Q 3803 722 4122 1019 
L 4122 359 
Q 3791 134 3420 21 
Q 3050 -91 2638 -91 
Q 1578 -91 968 557 
Q 359 1206 359 2328 
Q 359 3453 968 4101 
Q 1578 4750 2638 4750 
Q 3056 4750 3426 4639 
Q 3797 4528 4122 4306 
z
" transform="scale(0.015625)"/>
       <path id="DejaVuSans-20" transform="scale(0.015625)"/>
       <path id="DejaVuSans-49" d="M 628 4666 
L 1259 4666 
L 1259 0 
L 628 0 
L 628 4666 
z
" transform="scale(0.015625)"/>
       <path id="DejaVuSans-6e" d="M 3513 2113 
L 3513 0 
L 2938 0 
L 2938 2094 
Q 2938 2591 2744 2837 
Q 2550 3084 2163 3084 
Q 1697 3084 1428 2787 
Q 1159 2491 1159 1978 
L 1159 0 
L 581 0 
L 581 3500 
L 1159 3500 
L 1159 2956 
Q 1366 3272 1645 3428 
Q 1925 3584 2291 3584 
Q 2894 3584 3203 3211 
Q 3513 2838 3513 2113 
z
" transform="scale(0.015625)"/>
       <path id="DejaVuSans-74" d="M 1172 4494 
L 1172 3500 
L 2356 3500 
L 2356 3053 
L 1172 3053 
L 1172 1153 
Q 1172 725 1289 603 
Q 1406 481 1766 481 
L 2356 481 
L 2356 0 
L 1766 0 
Q 1100 0 847 248 
Q 594 497 594 1153 
L 594 3053 
L 172 3053 
L 172 3500 
L 594 3500 
L 594 4494 
L 1172 4494 
z
" transform="scale(0.015625)"/>
       <path id="DejaVuSans-65" d="M 3597 1894 
L 3597 1613 
L 953 1613 
Q 991 1019 1311 708 
Q 1631 397 2203 397 
Q 2534 397 2845 478 
Q 3156 559 3463 722 
L 3463 178 
Q 3153 47 2828 -22 
Q 2503 -91 2169 -91 
Q 1331 -91 842 396 
Q 353 884 353 1716 
Q 353 2575 817 3079 
Q 1281 3584 2069 3584 
Q 2775 3584 3186 3129 
Q 3597 2675 3597 1894 
z
M 3022 2063 
Q 3016 2534 2758 2815 
Q 2500 3097 2075 3097 
Q 1594 3097 1305 2825 
Q 1016 2553 972 2059 
L 3022 2063 
z
" transform="scale(0.015625)"/>
       <path id="DejaVuSans-72" d="M 2631 2963 
Q 2534 3019 2420 3045 
Q 2306 3072 2169 3072 
Q 1681 3072 1420 2755 
Q 1159 2438 1159 1844 
L 1159 0 
L 581 0 
L 581 3500 
L 1159 3500 
L 1159 2956 
Q 1341 3275 1631 3429 
Q 1922 3584 2338 3584 
Q 2397 3584 2469 3576 
Q 2541 3569 2628 3553 
L 2631 2963 
z
" transform="scale(0.015625)"/>
       <path id="DejaVuSans-61" d="M 2194 1759 
Q 1497 1759 1228 1600 
Q 959 1441 959 1056 
Q 959 750 1161 570 
Q 1363 391 1709 391 
Q 2188 391 2477 730 
Q 2766 1069 2766 1631 
L 2766 1759 
L 2194 1759 
z
M 3341 1997 
L 3341 0 
L 2766 0 
L 2766 531 
Q 2569 213 2275 61 
Q 1981 -91 1556 -91 
Q 1019 -91 701 211 
Q 384 513 384 1019 
Q 384 1609 779 1909 
Q 1175 2209 1959 2209 
L 2766 2209 
L 2766 2266 
Q 2766 2663 2505 2880 
Q 2244 3097 1772 3097 
Q 1472 3097 1187 3025 
Q 903 2953 641 2809 
L 641 3341 
Q 956 3463 1253 3523 
Q 1550 3584 1831 3584 
Q 2591 3584 2966 3190 
Q 3341 2797 3341 1997 
z
" transform="scale(0.015625)"/>
       <path id="DejaVuSans-63" d="M 3122 3366 
L 3122 2828 
Q 2878 2963 2633 3030 
Q 2388 3097 2138 3097 
Q 1578 3097 1268 2742 
Q 959 2388 959 1747 
Q 959 1106 1268 751 
Q 1578 397 2138 397 
Q 2388 397 2633 464 
Q 2878 531 3122 666 
L 3122 134 
Q 2881 22 2623 -34 
Q 2366 -91 2075 -91 
Q 1284 -91 818 406 
Q 353 903 353 1747 
Q 353 2603 823 3093 
Q 1294 3584 2113 3584 
Q 2378 3584 2631 3529 
Q 2884 3475 3122 3366 
z
" transform="scale(0.015625)"/>
       <path id="DejaVuSans-69" d="M 603 3500 
L 1178 3500 
L 1178 0 
L 603 0 
L 603 3500 
z
M 603 4863 
L 1178 4863 
L 1178 4134 
L 603 4134 
L 603 4863 
z
" transform="scale(0.015625)"/>
       <path id="DejaVuSans-73" d="M 2834 3397 
L 2834 2853 
Q 2591 2978 2328 3040 
Q 2066 3103 1784 3103 
Q 1356 3103 1142 2972 
Q 928 2841 928 2578 
Q 928 2378 1081 2264 
Q 1234 2150 1697 2047 
L 1894 2003 
Q 2506 1872 2764 1633 
Q 3022 1394 3022 966 
Q 3022 478 2636 193 
Q 2250 -91 1575 -91 
Q 1294 -91 989 -36 
Q 684 19 347 128 
L 347 722 
Q 666 556 975 473 
Q 1284 391 1588 391 
Q 1994 391 2212 530 
Q 2431 669 2431 922 
Q 2431 1156 2273 1281 
Q 2116 1406 1581 1522 
L 1381 1569 
Q 847 1681 609 1914 
Q 372 2147 372 2553 
Q 372 3047 722 3315 
Q 1072 3584 1716 3584 
Q 2034 3584 2315 3537 
Q 2597 3491 2834 3397 
z
" transform="scale(0.015625)"/>
       <path id="DejaVuSans-79" d="M 2059 -325 
Q 1816 -950 1584 -1140 
Q 1353 -1331 966 -1331 
L 506 -1331 
L 506 -850 
L 844 -850 
Q 1081 -850 1212 -737 
Q 1344 -625 1503 -206 
L 1606 56 
L 191 3500 
L 800 3500 
L 1894 763 
L 2988 3500 
L 3597 3500 
L 2059 -325 
z
" transform="scale(0.015625)"/>
      </defs>
      <use xlink:href="#DejaVuSans-45"/>
      <use xlink:href="#DejaVuSans-67" transform="translate(63.183594 0)"/>
      <use xlink:href="#DejaVuSans-6f" transform="translate(126.660156 0)"/>
      <use xlink:href="#DejaVuSans-2d" transform="translate(189.716797 0)"/>
      <use xlink:href="#DejaVuSans-4e" transform="translate(225.800781 0)"/>
      <use xlink:href="#DejaVuSans-50" transform="translate(300.605469 0)"/>
      <use xlink:href="#DejaVuSans-43" transform="translate(360.908203 0)"/>
      <use xlink:href="#DejaVuSans-20" transform="translate(430.732422 0)"/>
      <use xlink:href="#DejaVuSans-49" transform="translate(462.519531 0)"/>
      <use xlink:href="#DejaVuSans-6e" transform="translate(492.011719 0)"/>
      <use xlink:href="#DejaVuSans-74" transform="translate(555.390625 0)"/>
      <use xlink:href="#DejaVuSans-65" transform="translate(594.599609 0)"/>
      <use xlink:href="#DejaVuSans-72" transform="translate(656.123047 0)"/>
      <use xlink:href="#DejaVuSans-61" transform="translate(697.236328 0)"/>
      <use xlink:href="#DejaVuSans-63" transform="translate(758.515625 0)"/>
      <use xlink:href="#DejaVuSans-74" transform="translate(813.496094 0)"/>
      <use xlink:href="#DejaVuSans-69" transform="translate(852.705078 0)"/>
      <use xlink:href="#DejaVuSans-6f" transform="translate(880.488281 0)"/>
      <use xlink:href="#DejaVuSans-6e" transform="translate(941.669922 0)"/>
      <use xlink:href="#DejaVuSans-20" transform="translate(1005.048828 0)"/>
      <use xlink:href="#DejaVuSans-49" transform="translate(1036.835938 0)"/>
      <use xlink:href="#DejaVuSans-6e" transform="translate(1066.328125 0)"/>
      <use xlink:href="#DejaVuSans-74" transform="translate(1129.707031 0)"/>
      <use xlink:href="#DejaVuSans-65" transform="translate(1168.916016 0)"/>
      <use xlink:href="#DejaVuSans-6e" transform="translate(1230.439453 0)"/>
      <use xlink:href="#DejaVuSans-73" transform="translate(1293.818359 0)"/>
      <use xlink:href="#DejaVuSans-69" transform="translate(1345.917969 0)"/>
      <use xlink:href="#DejaVuSans-74" transform="translate(1373.701172 0)"/>
      <use xlink:href="#DejaVuSans-79" transform="translate(1412.910156 0)"/>
     </g>
    </g>
   </g>
   <g id="matplotlib.axis_2">
    <g id="ytick_1">
     <g id="line2d_7">
      <defs>
       <path id="md3eb0ebfc5" d="M 0 0 
L -3.5 0 
" style="stroke: #000000; stroke-width: 0.8"/>
      </defs>
      <g>
       <use xlink:href="#md3eb0ebfc5" x="44.57" y="390.04" style="stroke: #000000; stroke-width: 0.8"/>
      </g>
     </g>
     <g id="text_8">
      <!-- 0 -->
      <g transform="translate(31.2075 393.839219) scale(0.1 -0.1)">
       <use xlink:href="#DejaVuSans-30"/>
      </g>
     </g>
    </g>
    <g id="ytick_2">
     <g id="line2d_8">
      <g>
       <use xlink:href="#md3eb0ebfc5" x="44.57" y="317.408" style="stroke: #000000; stroke-width: 0.8"/>
      </g>
     </g>
     <g id="text_9">
      <!-- 2 -->
      <g transform="translate(31.2075 321.207219) scale(0.1 -0.1)">
       <use xlink:href="#DejaVuSans-32"/>
      </g>
     </g>
    </g>
    <g id="ytick_3">
     <g id="line2d_9">
      <g>
       <use xlink:href="#md3eb0ebfc5" x="44.57" y="244.776" style="stroke: #000000; stroke-width: 0.8"/>
      </g>
     </g>
     <g id="text_10">
      <!-- 4 -->
      <g transform="translate(31.2075 248.575219) scale(0.1 -0.1)">
       <use xlink:href="#DejaVuSans-34"/>
      </g>
     </g>
    </g>
    <g id="ytick_4">
     <g id="line2d_10">
      <g>
       <use xlink:href="#md3eb0ebfc5" x="44.57" y="172.144" style="stroke: #000000; stroke-width: 0.8"/>
      </g>
     </g>
     <g id="text_11">
      <!-- 6 -->
      <g transform="translate(31.2075 175.943219) scale(0.1 -0.1)">
       <use xlink:href="#DejaVuSans-36"/>
      </g>
     </g>
    </g>
    <g id="ytick_5">
     <g id="line2d_11">
      <g>
       <use xlink:href="#md3eb0ebfc5" x="44.57" y="99.512" style="stroke: #000000; stroke-width: 0.8"/>
      </g>
     </g>
     <g id="text_12">
      <!-- 8 -->
      <g transform="translate(31.2075 103.311219) scale(0.1 -0.1)">
       <use xlink:href="#DejaVuSans-38"/>
      </g>
     </g>
    </g>
    <g id="ytick_6">
     <g id="line2d_12">
      <g>
       <use xlink:href="#md3eb0ebfc5" x="44.57" y="26.88" style="stroke: #000000; stroke-width: 0.8"/>
      </g>
     </g>
     <g id="text_13">
      <!-- 10 -->
      <g transform="translate(24.845 30.679219) scale(0.1 -0.1)">
       <use xlink:href="#DejaVuSans-31"/>
       <use xlink:href="#DejaVuSans-30" transform="translate(63.623047 0)"/>
      </g>
     </g>
    </g>
    <g id="text_14">
     <!-- Behavioral Aggressiveness -->
     <g transform="translate(18.765313 275.582656) rotate(-90) scale(0.1 -0.1)">
      <defs>
       <path id="DejaVuSans-42" d="M 1259 2228 
L 1259 519 
L 2272 519 
Q 2781 519 3026 730 
Q 3272 941 3272 1375 
Q 3272 1813 3026 2020 
Q 2781 2228 2272 2228 
L 1259 2228 
z
M 1259 4147 
L 1259 2741 
L 2194 2741 
Q 2656 2741 2882 2914 
Q 3109 3088 3109 3444 
Q 3109 3797 2882 3972 
Q 2656 4147 2194 4147 
L 1259 4147 
z
M 628 4666 
L 2241 4666 
Q 2963 4666 3353 4366 
Q 3744 4066 3744 3513 
Q 3744 3084 3544 2831 
Q 3344 2578 2956 2516 
Q 3422 2416 3680 2098 
Q 3938 1781 3938 1306 
Q 3938 681 3513 340 
Q 3088 0 2303 0 
L 628 0 
L 628 4666 
z
" transform="scale(0.015625)"/>
       <path id="DejaVuSans-68" d="M 3513 2113 
L 3513 0 
L 2938 0 
L 2938 2094 
Q 2938 2591 2744 2837 
Q 2550 3084 2163 3084 
Q 1697 3084 1428 2787 
Q 1159 2491 1159 1978 
L 1159 0 
L 581 0 
L 581 4863 
L 1159 4863 
L 1159 2956 
Q 1366 3272 1645 3428 
Q 1925 3584 2291 3584 
Q 2894 3584 3203 3211 
Q 3513 2838 3513 2113 
z
" transform="scale(0.015625)"/>
       <path id="DejaVuSans-76" d="M 191 3500 
L 800 3500 
L 1894 563 
L 2988 3500 
L 3597 3500 
L 2284 0 
L 1503 0 
L 191 3500 
z
" transform="scale(0.015625)"/>
       <path id="DejaVuSans-6c" d="M 603 4863 
L 1178 4863 
L 1178 0 
L 603 0 
L 603 4863 
z
" transform="scale(0.015625)"/>
       <path id="DejaVuSans-41" d="M 2188 4044 
L 1331 1722 
L 3047 1722 
L 2188 4044 
z
M 1831 4666 
L 2547 4666 
L 4325 0 
L 3669 0 
L 3244 1197 
L 1141 1197 
L 716 0 
L 50 0 
L 1831 4666 
z
" transform="scale(0.015625)"/>
      </defs>
      <use xlink:href="#DejaVuSans-42"/>
      <use xlink:href="#DejaVuSans-65" transform="translate(68.603516 0)"/>
      <use xlink:href="#DejaVuSans-68" transform="translate(130.126953 0)"/>
      <use xlink:href="#DejaVuSans-61" transform="translate(193.505859 0)"/>
      <use xlink:href="#DejaVuSans-76" transform="translate(254.785156 0)"/>
      <use xlink:href="#DejaVuSans-69" transform="translate(313.964844 0)"/>
      <use xlink:href="#DejaVuSans-6f" transform="translate(341.748047 0)"/>
      <use xlink:href="#DejaVuSans-72" transform="translate(402.929688 0)"/>
      <use xlink:href="#DejaVuSans-61" transform="translate(444.042969 0)"/>
      <use xlink:href="#DejaVuSans-6c" transform="translate(505.322266 0)"/>
      <use xlink:href="#DejaVuSans-20" transform="translate(533.105469 0)"/>
      <use xlink:href="#DejaVuSans-41" transform="translate(564.892578 0)"/>
      <use xlink:href="#DejaVuSans-67" transform="translate(633.300781 0)"/>
      <use xlink:href="#DejaVuSans-67" transform="translate(696.777344 0)"/>
      <use xlink:href="#DejaVuSans-72" transform="translate(760.253906 0)"/>
      <use xlink:href="#DejaVuSans-65" transform="translate(799.117188 0)"/>
      <use xlink:href="#DejaVuSans-73" transform="translate(860.640625 0)"/>
      <use xlink:href="#DejaVuSans-73" transform="translate(912.740234 0)"/>
      <use xlink:href="#DejaVuSans-69" transform="translate(964.839844 0)"/>
      <use xlink:href="#DejaVuSans-76" transform="translate(992.623047 0)"/>
      <use xlink:href="#DejaVuSans-65" transform="translate(1051.802734 0)"/>
      <use xlink:href="#DejaVuSans-6e" transform="translate(1113.326172 0)"/>
      <use xlink:href="#DejaVuSans-65" transform="translate(1176.705078 0)"/>
      <use xlink:href="#DejaVuSans-73" transform="translate(1238.228516 0)"/>
      <use xlink:href="#DejaVuSans-73" transform="translate(1290.328125 0)"/>
     </g>
    </g>
   </g>
   <g id="line2d_13">
    <path d="M 81.921211 433 
L 88.503894 410.659058 
L 93.672588 393.614484 
L 98.841281 377.210311 
L 104.009975 361.611022 
L 109.178668 346.941576 
L 114.347362 333.276137 
L 119.516055 320.631381 
L 124.684749 308.964992 
L 129.853442 298.179481 
L 135.022136 288.130981 
L 140.190829 278.642223 
L 147.943869 265.032317 
L 160.865603 242.497245 
L 168.618643 228.357666 
L 176.371683 213.588895 
L 197.046457 173.437776 
L 202.215151 164.128071 
L 207.383844 155.487298 
L 209.968191 151.468944 
L 212.552538 147.674508 
L 215.136884 144.117253 
L 217.721231 140.807144 
L 220.305578 137.750621 
L 222.889925 134.95045 
L 225.474271 132.405662 
L 228.058618 130.111578 
L 230.642965 128.05991 
L 233.227312 126.23895 
L 235.811658 124.633841 
L 238.396005 123.226906 
L 240.980352 121.998055 
L 243.564698 120.925238 
L 248.733392 119.152743 
L 253.902085 117.713569 
L 266.823819 114.36262 
L 271.992513 112.743053 
L 277.161206 110.84369 
L 282.329899 108.662146 
L 290.08294 104.998473 
L 297.83598 101.243638 
L 303.004673 98.976504 
L 305.58902 97.986698 
L 308.173367 97.125536 
L 310.757714 96.416713 
L 313.34206 95.882549 
L 315.926407 95.543481 
L 318.510754 95.417601 
L 321.095101 95.520247 
L 323.679447 95.86365 
L 326.263794 96.456664 
L 328.848141 97.304558 
L 331.432487 98.408901 
L 334.016834 99.767524 
L 336.601181 101.374571 
L 339.185528 103.220632 
L 341.769874 105.292954 
L 344.354221 107.57573 
L 346.938568 110.050465 
L 352.107261 115.490911 
L 357.275955 121.429577 
L 365.028995 130.842873 
L 375.366382 143.399609 
L 380.535075 149.381899 
L 385.703769 155.080003 
L 390.872462 160.501077 
L 398.625503 168.270506 
L 406.378543 176.004948 
L 411.547236 181.435608 
L 416.71593 187.314037 
L 419.300276 190.481133 
L 421.884623 193.829687 
L 424.46897 197.379432 
L 427.053317 201.147615 
L 429.637663 205.148609 
L 432.22201 209.393589 
L 434.806357 213.89027 
L 437.390704 218.642744 
L 439.97505 223.651376 
L 445.143744 234.420008 
L 450.312437 246.126442 
L 455.481131 258.649442 
L 460.649824 271.827192 
L 468.402864 292.407726 
L 486.493291 341.014179 
L 494.246332 361.06674 
L 501.999372 380.524517 
L 517.505452 419.04959 
L 522.900186 433 
L 522.900186 433 
" clip-path="url(#pf52cec46b3)" style="fill: none; stroke: #000000; stroke-width: 2; stroke-linecap: square"/>
   </g>
   <g id="patch_4">
    <path d="M 44.57 390.04 
L 44.57 26.88 
" style="fill: none; stroke: #000000; stroke-width: 0.8; stroke-linejoin: miter; stroke-linecap: square"/>
   </g>
   <g id="patch_5">
    <path d="M 558.855 390.04 
L 558.855 26.88 
" style="fill: none; stroke: #000000; stroke-width: 0.8; stroke-linejoin: miter; stroke-linecap: square"/>
   </g>
   <g id="patch_6">
    <path d="M 44.57 390.04 
L 558.855 390.04 
" style="fill: none; stroke: #000000; stroke-width: 0.8; stroke-linejoin: miter; stroke-linecap: square"/>
   </g>
   <g id="patch_7">
    <path d="M 44.57 26.88 
L 558.855 26.88 
" style="fill: none; stroke: #000000; stroke-width: 0.8; stroke-linejoin: miter; stroke-linecap: square"/>
   </g>
   <g id="text_15">
    <!-- Formal Methods in Semantic Scenario Space -->
    <g transform="translate(168.112187 20.88) scale(0.12 -0.12)">
     <defs>
      <path id="DejaVuSans-46" d="M 628 4666 
L 3309 4666 
L 3309 4134 
L 1259 4134 
L 1259 2759 
L 3109 2759 
L 3109 2228 
L 1259 2228 
L 1259 0 
L 628 0 
L 628 4666 
z
" transform="scale(0.015625)"/>
      <path id="DejaVuSans-6d" d="M 3328 2828 
Q 3544 3216 3844 3400 
Q 4144 3584 4550 3584 
Q 5097 3584 5394 3201 
Q 5691 2819 5691 2113 
L 5691 0 
L 5113 0 
L 5113 2094 
Q 5113 2597 4934 2840 
Q 4756 3084 4391 3084 
Q 3944 3084 3684 2787 
Q 3425 2491 3425 1978 
L 3425 0 
L 2847 0 
L 2847 2094 
Q 2847 2600 2669 2842 
Q 2491 3084 2119 3084 
Q 1678 3084 1418 2786 
Q 1159 2488 1159 1978 
L 1159 0 
L 581 0 
L 581 3500 
L 1159 3500 
L 1159 2956 
Q 1356 3278 1631 3431 
Q 1906 3584 2284 3584 
Q 2666 3584 2933 3390 
Q 3200 3197 3328 2828 
z
" transform="scale(0.015625)"/>
      <path id="DejaVuSans-4d" d="M 628 4666 
L 1569 4666 
L 2759 1491 
L 3956 4666 
L 4897 4666 
L 4897 0 
L 4281 0 
L 4281 4097 
L 3078 897 
L 2444 897 
L 1241 4097 
L 1241 0 
L 628 0 
L 628 4666 
z
" transform="scale(0.015625)"/>
      <path id="DejaVuSans-64" d="M 2906 2969 
L 2906 4863 
L 3481 4863 
L 3481 0 
L 2906 0 
L 2906 525 
Q 2725 213 2448 61 
Q 2172 -91 1784 -91 
Q 1150 -91 751 415 
Q 353 922 353 1747 
Q 353 2572 751 3078 
Q 1150 3584 1784 3584 
Q 2172 3584 2448 3432 
Q 2725 3281 2906 2969 
z
M 947 1747 
Q 947 1113 1208 752 
Q 1469 391 1925 391 
Q 2381 391 2643 752 
Q 2906 1113 2906 1747 
Q 2906 2381 2643 2742 
Q 2381 3103 1925 3103 
Q 1469 3103 1208 2742 
Q 947 2381 947 1747 
z
" transform="scale(0.015625)"/>
      <path id="DejaVuSans-53" d="M 3425 4513 
L 3425 3897 
Q 3066 4069 2747 4153 
Q 2428 4238 2131 4238 
Q 1616 4238 1336 4038 
Q 1056 3838 1056 3469 
Q 1056 3159 1242 3001 
Q 1428 2844 1947 2747 
L 2328 2669 
Q 3034 2534 3370 2195 
Q 3706 1856 3706 1288 
Q 3706 609 3251 259 
Q 2797 -91 1919 -91 
Q 1588 -91 1214 -16 
Q 841 59 441 206 
L 441 856 
Q 825 641 1194 531 
Q 1563 422 1919 422 
Q 2459 422 2753 634 
Q 3047 847 3047 1241 
Q 3047 1584 2836 1778 
Q 2625 1972 2144 2069 
L 1759 2144 
Q 1053 2284 737 2584 
Q 422 2884 422 3419 
Q 422 4038 858 4394 
Q 1294 4750 2059 4750 
Q 2388 4750 2728 4690 
Q 3069 4631 3425 4513 
z
" transform="scale(0.015625)"/>
      <path id="DejaVuSans-70" d="M 1159 525 
L 1159 -1331 
L 581 -1331 
L 581 3500 
L 1159 3500 
L 1159 2969 
Q 1341 3281 1617 3432 
Q 1894 3584 2278 3584 
Q 2916 3584 3314 3078 
Q 3713 2572 3713 1747 
Q 3713 922 3314 415 
Q 2916 -91 2278 -91 
Q 1894 -91 1617 61 
Q 1341 213 1159 525 
z
M 3116 1747 
Q 3116 2381 2855 2742 
Q 2594 3103 2138 3103 
Q 1681 3103 1420 2742 
Q 1159 2381 1159 1747 
Q 1159 1113 1420 752 
Q 1681 391 2138 391 
Q 2594 391 2855 752 
Q 3116 1113 3116 1747 
z
" transform="scale(0.015625)"/>
     </defs>
     <use xlink:href="#DejaVuSans-46"/>
     <use xlink:href="#DejaVuSans-6f" transform="translate(53.894531 0)"/>
     <use xlink:href="#DejaVuSans-72" transform="translate(115.076172 0)"/>
     <use xlink:href="#DejaVuSans-6d" transform="translate(154.439453 0)"/>
     <use xlink:href="#DejaVuSans-61" transform="translate(251.851562 0)"/>
     <use xlink:href="#DejaVuSans-6c" transform="translate(313.130859 0)"/>
     <use xlink:href="#DejaVuSans-20" transform="translate(340.914062 0)"/>
     <use xlink:href="#DejaVuSans-4d" transform="translate(372.701172 0)"/>
     <use xlink:href="#DejaVuSans-65" transform="translate(458.980469 0)"/>
     <use xlink:href="#DejaVuSans-74" transform="translate(520.503906 0)"/>
     <use xlink:href="#DejaVuSans-68" transform="translate(559.712891 0)"/>
     <use xlink:href="#DejaVuSans-6f" transform="translate(623.091797 0)"/>
     <use xlink:href="#DejaVuSans-64" transform="translate(684.273438 0)"/>
     <use xlink:href="#DejaVuSans-73" transform="translate(747.75 0)"/>
     <use xlink:href="#DejaVuSans-20" transform="translate(799.849609 0)"/>
     <use xlink:href="#DejaVuSans-69" transform="translate(831.636719 0)"/>
     <use xlink:href="#DejaVuSans-6e" transform="translate(859.419922 0)"/>
     <use xlink:href="#DejaVuSans-20" transform="translate(922.798828 0)"/>
     <use xlink:href="#DejaVuSans-53" transform="translate(954.585938 0)"/>
     <use xlink:href="#DejaVuSans-65" transform="translate(1018.0625 0)"/>
     <use xlink:href="#DejaVuSans-6d" transform="translate(1079.585938 0)"/>
     <use xlink:href="#DejaVuSans-61" transform="translate(1176.998047 0)"/>
     <use xlink:href="#DejaVuSans-6e" transform="translate(1238.277344 0)"/>
     <use xlink:href="#DejaVuSans-74" transform="translate(1301.65625 0)"/>
     <use xlink:href="#DejaVuSans-69" transform="translate(1340.865234 0)"/>
     <use xlink:href="#DejaVuSans-63" transform="translate(1368.648438 0)"/>
     <use xlink:href="#DejaVuSans-20" transform="translate(1423.628906 0)"/>
     <use xlink:href="#DejaVuSans-53" transform="translate(1455.416016 0)"/>
     <use xlink:href="#DejaVuSans-63" transform="translate(1518.892578 0)"/>
     <use xlink:href="#DejaVuSans-65" transform="translate(1573.873047 0)"/>
     <use xlink:href="#DejaVuSans-6e" transform="translate(1635.396484 0)"/>
     <use xlink:href="#DejaVuSans-61" transform="translate(1698.775391 0)"/>
     <use xlink:href="#DejaVuSans-72" transform="translate(1760.054688 0)"/>
     <use xlink:href="#DejaVuSans-69" transform="translate(1801.167969 0)"/>
     <use xlink:href="#DejaVuSans-6f" transform="translate(1828.951172 0)"/>
     <use xlink:href="#DejaVuSans-20" transform="translate(1890.132812 0)"/>
     <use xlink:href="#DejaVuSans-53" transform="translate(1921.919922 0)"/>
     <use xlink:href="#DejaVuSans-70" transform="translate(1985.396484 0)"/>
     <use xlink:href="#DejaVuSans-61" transform="translate(2048.873047 0)"/>
     <use xlink:href="#DejaVuSans-63" transform="translate(2110.152344 0)"/>
     <use xlink:href="#DejaVuSans-65" transform="translate(2165.132812 0)"/>
    </g>
   </g>
   <g id="legend_1">
    <g id="patch_8">
     <path d="M 354.8675 93.5925 
L 551.855 93.5925 
Q 553.855 93.5925 553.855 91.5925 
L 553.855 33.88 
Q 553.855 31.88 551.855 31.88 
L 354.8675 31.88 
Q 352.8675 31.88 352.8675 33.88 
L 352.8675 91.5925 
Q 352.8675 93.5925 354.8675 93.5925 
z
" style="fill: #ffffff; opacity: 0.8; stroke: #cccccc; stroke-linejoin: miter"/>
    </g>
    <g id="line2d_14">
     <path d="M 356.8675 39.978437 
L 366.8675 39.978437 
L 376.8675 39.978437 
" style="fill: none; stroke: #000000; stroke-width: 2; stroke-linecap: square"/>
    </g>
    <g id="text_16">
     <!-- Formal Safety Boundary -->
     <g transform="translate(384.8675 43.478437) scale(0.1 -0.1)">
      <defs>
       <path id="DejaVuSans-66" d="M 2375 4863 
L 2375 4384 
L 1825 4384 
Q 1516 4384 1395 4259 
Q 1275 4134 1275 3809 
L 1275 3500 
L 2222 3500 
L 2222 3053 
L 1275 3053 
L 1275 0 
L 697 0 
L 697 3053 
L 147 3053 
L 147 3500 
L 697 3500 
L 697 3744 
Q 697 4328 969 4595 
Q 1241 4863 1831 4863 
L 2375 4863 
z
" transform="scale(0.015625)"/>
       <path id="DejaVuSans-75" d="M 544 1381 
L 544 3500 
L 1119 3500 
L 1119 1403 
Q 1119 906 1312 657 
Q 1506 409 1894 409 
Q 2359 409 2629 706 
Q 2900 1003 2900 1516 
L 2900 3500 
L 3475 3500 
L 3475 0 
L 2900 0 
L 2900 538 
Q 2691 219 2414 64 
Q 2138 -91 1772 -91 
Q 1169 -91 856 284 
Q 544 659 544 1381 
z
M 1991 3584 
L 1991 3584 
z
" transform="scale(0.015625)"/>
      </defs>
      <use xlink:href="#DejaVuSans-46"/>
      <use xlink:href="#DejaVuSans-6f" transform="translate(53.894531 0)"/>
      <use xlink:href="#DejaVuSans-72" transform="translate(115.076172 0)"/>
      <use xlink:href="#DejaVuSans-6d" transform="translate(154.439453 0)"/>
      <use xlink:href="#DejaVuSans-61" transform="translate(251.851562 0)"/>
      <use xlink:href="#DejaVuSans-6c" transform="translate(313.130859 0)"/>
      <use xlink:href="#DejaVuSans-20" transform="translate(340.914062 0)"/>
      <use xlink:href="#DejaVuSans-53" transform="translate(372.701172 0)"/>
      <use xlink:href="#DejaVuSans-61" transform="translate(436.177734 0)"/>
      <use xlink:href="#DejaVuSans-66" transform="translate(497.457031 0)"/>
      <use xlink:href="#DejaVuSans-65" transform="translate(532.662109 0)"/>
      <use xlink:href="#DejaVuSans-74" transform="translate(594.185547 0)"/>
      <use xlink:href="#DejaVuSans-79" transform="translate(633.394531 0)"/>
      <use xlink:href="#DejaVuSans-20" transform="translate(692.574219 0)"/>
      <use xlink:href="#DejaVuSans-42" transform="translate(724.361328 0)"/>
      <use xlink:href="#DejaVuSans-6f" transform="translate(792.964844 0)"/>
      <use xlink:href="#DejaVuSans-75" transform="translate(854.146484 0)"/>
      <use xlink:href="#DejaVuSans-6e" transform="translate(917.525391 0)"/>
      <use xlink:href="#DejaVuSans-64" transform="translate(980.904297 0)"/>
      <use xlink:href="#DejaVuSans-61" transform="translate(1044.380859 0)"/>
      <use xlink:href="#DejaVuSans-72" transform="translate(1105.660156 0)"/>
      <use xlink:href="#DejaVuSans-79" transform="translate(1146.773438 0)"/>
     </g>
    </g>
    <g id="PathCollection_3">
     <g>
      <use xlink:href="#m4becac0ec0" x="366.8675" y="55.531563" style="fill: #0000ff; fill-opacity: 0.7; stroke: #0000ff; stroke-opacity: 0.7"/>
     </g>
    </g>
    <g id="text_17">
     <!-- Enumerated / AI Scenarios -->
     <g transform="translate(384.8675 58.156563) scale(0.1 -0.1)">
      <defs>
       <path id="DejaVuSans-2f" d="M 1625 4666 
L 2156 4666 
L 531 -594 
L 0 -594 
L 1625 4666 
z
" transform="scale(0.015625)"/>
      </defs>
      <use xlink:href="#DejaVuSans-45"/>
      <use xlink:href="#DejaVuSans-6e" transform="translate(63.183594 0)"/>
      <use xlink:href="#DejaVuSans-75" transform="translate(126.5625 0)"/>
      <use xlink:href="#DejaVuSans-6d" transform="translate(189.941406 0)"/>
      <use xlink:href="#DejaVuSans-65" transform="translate(287.353516 0)"/>
      <use xlink:href="#DejaVuSans-72" transform="translate(348.876953 0)"/>
      <use xlink:href="#DejaVuSans-61" transform="translate(389.990234 0)"/>
      <use xlink:href="#DejaVuSans-74" transform="translate(451.269531 0)"/>
      <use xlink:href="#DejaVuSans-65" transform="translate(490.478516 0)"/>
      <use xlink:href="#DejaVuSans-64" transform="translate(552.001953 0)"/>
      <use xlink:href="#DejaVuSans-20" transform="translate(615.478516 0)"/>
      <use xlink:href="#DejaVuSans-2f" transform="translate(647.265625 0)"/>
      <use xlink:href="#DejaVuSans-20" transform="translate(680.957031 0)"/>
      <use xlink:href="#DejaVuSans-41" transform="translate(712.744141 0)"/>
      <use xlink:href="#DejaVuSans-49" transform="translate(781.152344 0)"/>
      <use xlink:href="#DejaVuSans-20" transform="translate(810.644531 0)"/>
      <use xlink:href="#DejaVuSans-53" transform="translate(842.431641 0)"/>
      <use xlink:href="#DejaVuSans-63" transform="translate(905.908203 0)"/>
      <use xlink:href="#DejaVuSans-65" transform="translate(960.888672 0)"/>
      <use xlink:href="#DejaVuSans-6e" transform="translate(1022.412109 0)"/>
      <use xlink:href="#DejaVuSans-61" transform="translate(1085.791016 0)"/>
      <use xlink:href="#DejaVuSans-72" transform="translate(1147.070312 0)"/>
      <use xlink:href="#DejaVuSans-69" transform="translate(1188.183594 0)"/>
      <use xlink:href="#DejaVuSans-6f" transform="translate(1215.966797 0)"/>
      <use xlink:href="#DejaVuSans-73" transform="translate(1277.148438 0)"/>
     </g>
    </g>
    <g id="PathCollection_4">
     <g>
      <use xlink:href="#m66f5cf46a2" x="366.8675" y="70.209687" style="fill: #ffa500; fill-opacity: 0.9; stroke: #000000; stroke-opacity: 0.9"/>
     </g>
    </g>
    <g id="text_18">
     <!-- Formal-Method-guided Scenarios -->
     <g transform="translate(384.8675 72.834687) scale(0.1 -0.1)">
      <use xlink:href="#DejaVuSans-46"/>
      <use xlink:href="#DejaVuSans-6f" transform="translate(53.894531 0)"/>
      <use xlink:href="#DejaVuSans-72" transform="translate(115.076172 0)"/>
      <use xlink:href="#DejaVuSans-6d" transform="translate(154.439453 0)"/>
      <use xlink:href="#DejaVuSans-61" transform="translate(251.851562 0)"/>
      <use xlink:href="#DejaVuSans-6c" transform="translate(313.130859 0)"/>
      <use xlink:href="#DejaVuSans-2d" transform="translate(340.914062 0)"/>
      <use xlink:href="#DejaVuSans-4d" transform="translate(376.998047 0)"/>
      <use xlink:href="#DejaVuSans-65" transform="translate(463.277344 0)"/>
      <use xlink:href="#DejaVuSans-74" transform="translate(524.800781 0)"/>
      <use xlink:href="#DejaVuSans-68" transform="translate(564.009766 0)"/>
      <use xlink:href="#DejaVuSans-6f" transform="translate(627.388672 0)"/>
      <use xlink:href="#DejaVuSans-64" transform="translate(688.570312 0)"/>
      <use xlink:href="#DejaVuSans-2d" transform="translate(752.046875 0)"/>
      <use xlink:href="#DejaVuSans-67" transform="translate(788.130859 0)"/>
      <use xlink:href="#DejaVuSans-75" transform="translate(851.607422 0)"/>
      <use xlink:href="#DejaVuSans-69" transform="translate(914.986328 0)"/>
      <use xlink:href="#DejaVuSans-64" transform="translate(942.769531 0)"/>
      <use xlink:href="#DejaVuSans-65" transform="translate(1006.246094 0)"/>
      <use xlink:href="#DejaVuSans-64" transform="translate(1067.769531 0)"/>
      <use xlink:href="#DejaVuSans-20" transform="translate(1131.246094 0)"/>
      <use xlink:href="#DejaVuSans-53" transform="translate(1163.033203 0)"/>
      <use xlink:href="#DejaVuSans-63" transform="translate(1226.509766 0)"/>
      <use xlink:href="#DejaVuSans-65" transform="translate(1281.490234 0)"/>
      <use xlink:href="#DejaVuSans-6e" transform="translate(1343.013672 0)"/>
      <use xlink:href="#DejaVuSans-61" transform="translate(1406.392578 0)"/>
      <use xlink:href="#DejaVuSans-72" transform="translate(1467.671875 0)"/>
      <use xlink:href="#DejaVuSans-69" transform="translate(1508.785156 0)"/>
      <use xlink:href="#DejaVuSans-6f" transform="translate(1536.568359 0)"/>
      <use xlink:href="#DejaVuSans-73" transform="translate(1597.75 0)"/>
     </g>
    </g>
    <g id="patch_9">
     <path d="M 356.8675 87.512812 
L 376.8675 87.512812 
L 376.8675 80.512812 
L 356.8675 80.512812 
z
" style="fill: #ff0000; opacity: 0.3; stroke: #ff0000; stroke-linejoin: miter"/>
    </g>
    <g id="text_19">
     <!-- Potential Safety Violation -->
     <g transform="translate(384.8675 87.512812) scale(0.1 -0.1)">
      <defs>
       <path id="DejaVuSans-56" d="M 1831 0 
L 50 4666 
L 709 4666 
L 2188 738 
L 3669 4666 
L 4325 4666 
L 2547 0 
L 1831 0 
z
" transform="scale(0.015625)"/>
      </defs>
      <use xlink:href="#DejaVuSans-50"/>
      <use xlink:href="#DejaVuSans-6f" transform="translate(56.677734 0)"/>
      <use xlink:href="#DejaVuSans-74" transform="translate(117.859375 0)"/>
      <use xlink:href="#DejaVuSans-65" transform="translate(157.068359 0)"/>
      <use xlink:href="#DejaVuSans-6e" transform="translate(218.591797 0)"/>
      <use xlink:href="#DejaVuSans-74" transform="translate(281.970703 0)"/>
      <use xlink:href="#DejaVuSans-69" transform="translate(321.179688 0)"/>
      <use xlink:href="#DejaVuSans-61" transform="translate(348.962891 0)"/>
      <use xlink:href="#DejaVuSans-6c" transform="translate(410.242188 0)"/>
      <use xlink:href="#DejaVuSans-20" transform="translate(438.025391 0)"/>
      <use xlink:href="#DejaVuSans-53" transform="translate(469.8125 0)"/>
      <use xlink:href="#DejaVuSans-61" transform="translate(533.289062 0)"/>
      <use xlink:href="#DejaVuSans-66" transform="translate(594.568359 0)"/>
      <use xlink:href="#DejaVuSans-65" transform="translate(629.773438 0)"/>
      <use xlink:href="#DejaVuSans-74" transform="translate(691.296875 0)"/>
      <use xlink:href="#DejaVuSans-79" transform="translate(730.505859 0)"/>
      <use xlink:href="#DejaVuSans-20" transform="translate(789.685547 0)"/>
      <use xlink:href="#DejaVuSans-56" transform="translate(821.472656 0)"/>
      <use xlink:href="#DejaVuSans-69" transform="translate(887.630859 0)"/>
      <use xlink:href="#DejaVuSans-6f" transform="translate(915.414062 0)"/>
      <use xlink:href="#DejaVuSans-6c" transform="translate(976.595703 0)"/>
      <use xlink:href="#DejaVuSans-61" transform="translate(1004.378906 0)"/>
      <use xlink:href="#DejaVuSans-74" transform="translate(1065.658203 0)"/>
      <use xlink:href="#DejaVuSans-69" transform="translate(1104.867188 0)"/>
      <use xlink:href="#DejaVuSans-6f" transform="translate(1132.650391 0)"/>
      <use xlink:href="#DejaVuSans-6e" transform="translate(1193.832031 0)"/>
     </g>
    </g>
   </g>
  </g>
 </g>
 <defs>
  <clipPath id="pf52cec46b3">
   <rect x="44.57" y="26.88" width="514.285" height="363.16"/>
  </clipPath>
 </defs>
</svg>
